# xmcd
#
# Track frame offsets:
#	150
#	15202
#	26845
#	46652
#	58265
#	72745
#	89292
#	109295
#	124305
#	136275
#	150275
#	161875
#	182380
#
# Disc length: 2556 seconds
#
# Revision: 1
# Processed by: cddbd v1.5.1PL0 Copyright (c) Steve Scherf et al.
# Submitted via: audiograbber 1.80
#
DISCID=aa09fa0d
DTITLE=Torgersen and Gunvaldsen - Joint Venture
DYEAR=1900
DGENRE=
TTITLE0=Joe's Fifth Avenue
TTITLE1=Wolverton Mountain
TTITLE2=Partir C'est Mourir Un Peu
TTITLE3=Good Lookin' Texas Women
TTITLE4=Goin' Gone
TTITLE5=I Wonder What She's Doing Tonight
TTITLE6=Past The Point Of Rescue
TTITLE7=Dynamite Woman
TTITLE8=What's The Score
TTITLE9=Let Go Of The Stone
TTITLE10=Lovin' Cup
TTITLE11=Something To Remember You By
TTITLE12=The Good Ol' Nights
EXTD=
EXTT0=
EXTT1=
EXTT2=
EXTT3=
EXTT4=
EXTT5=
EXTT6=
EXTT7=
EXTT8=
EXTT9=
EXTT10=
EXTT11=
EXTT12=
PLAYORDER=
